<?xml version="1.0" encoding="UTF-8"?>
<svg id="Vrstva_2" data-name="Vrstva 2" xmlns="http://www.w3.org/2000/svg" xmlns:xlink="http://www.w3.org/1999/xlink" viewBox="0 0 385.08 245.77">
  <defs>
    <style>
      .cls-1 {
        mask: url(#mask);
      }

      .cls-2 {
        filter: url(#luminosity-noclip);
      }

      .cls-3 {
        fill: url(#Nepojmenovaný_přechod_45);
      }

      .cls-4 {
        fill: url(#Nepojmenovaný_přechod_17);
      }

      .cls-5 {
        fill: #d95f02;
      }

      .cls-6 {
        fill: #a34702;
      }

      .cls-7 {
        fill: none;
        stroke: #e17f35;
      }

      .cls-8 {
        fill: #a7c957;
      }

      .cls-9 {
        clip-path: url(#clippath);
      }

      .cls-10 {
        fill: #361801;
      }

      .cls-11 {
        fill: #73a942;
      }
    </style>
    <filter id="luminosity-noclip" x="0" y="69.21" width="385.08" height="176.56" color-interpolation-filters="sRGB" filterUnits="userSpaceOnUse">
      <feFlood flood-color="#fff" result="bg"/>
      <feBlend in="SourceGraphic" in2="bg"/>
    </filter>
    <mask id="mask" x="0" y="69.21" width="385.08" height="176.56" maskUnits="userSpaceOnUse">
      <g class="cls-2">
        <g>
          <circle cx="64.96" cy="94.62" r="25.41"/>
          <circle cx="52.57" cy="113.51" r="16.22"/>
          <circle cx="73.69" cy="122.35" r="13.02"/>
        </g>
      </g>
    </mask>
    <linearGradient id="Nepojmenovaný_přechod_45" data-name="Nepojmenovaný přechod 45" x1=".11" y1="167.4" x2="356.07" y2="167.4" gradientUnits="userSpaceOnUse">
      <stop offset="0" stop-color="#73a942"/>
      <stop offset="1" stop-color="#245501"/>
    </linearGradient>
    <linearGradient id="Nepojmenovaný_přechod_17" data-name="Nepojmenovaný přechod 17" x1="44.78" y1="80.48" x2="354.65" y2="80.48" gradientUnits="userSpaceOnUse">
      <stop offset="0" stop-color="#d95f02"/>
      <stop offset="1" stop-color="#6d3001"/>
    </linearGradient>
    <clipPath id="clippath">
      <path class="cls-4" d="M91.44,86.97l-16.03,5.91-10.74-2.45c-11.28-2.58-19.48-12.41-19.85-23.98-.54-16.57,6.46-32.95,19.78-44.03l6.05-5.03c10.99-9.14,25.11-13.64,39.36-12.53h0c21.01,1.62,40.95,9.95,56.88,23.75h0c10.16,8.8,22.11,15.28,35.03,18.99l99.65,28.64c9.79,2.81,18.88,7.63,26.7,14.15h0c16.73,13.94,26.4,34.59,26.4,56.36v9.52s-29.63-11.25-29.63-11.25l-182.02-37.07-51.56-20.98Z"/>
    </clipPath>
  </defs>
  <g id="Vrstva_1-2" data-name="Vrstva 1">
    <g>
      <g class="cls-1">
        <g>
          <path class="cls-3" d="M.11,89.04c14.92,27.36,109.42,81.08,198.27,76.35,68.12-3.62,125.72,16.29,156.87,30.15.54,1.11.82,1.71.82,1.71-23.67-10.89-114.39,60.36-213.69,46.8C45.92,230.89,2.51,96.69.11,89.04Z"/>
          <path class="cls-11" d="M198.38,165.39C109.53,170.11,15.03,116.39.11,89.04c-.07-.23-.11-.36-.11-.36,45.24,32.13,154.18-13.82,217.74-7.64,82.58,8.03,130.8,100.74,137.52,114.49-31.15-13.86-88.75-33.77-156.87-30.15Z"/>
          <g>
            <g>
              <path class="cls-8" d="M304.87,176.2l-47.36,38.54c-.24.2-.32.57-.18.83.13.25.42.3.66.14l49.18-34.84c1.21-.85,1.7-2.62,1.11-3.94-.59-1.32-2.05-1.7-3.26-.85-.05.03-.1.08-.15.11Z"/>
              <path class="cls-8" d="M264.67,169.13l-55.49,44.26c-.24.19-.33.56-.19.83.13.25.42.31.66.15l57.29-40.54c1.21-.85,1.7-2.62,1.11-3.94-.59-1.32-2.05-1.7-3.26-.85-.04.03-.09.06-.13.1Z"/>
              <path class="cls-8" d="M217.03,163.72l-50.8,47.07c-.23.21-.29.59-.13.83.15.24.45.27.68.08l52.86-43.56c1.16-.95,1.54-2.74.85-3.99-.69-1.25-2.18-1.49-3.33-.54-.04.03-.09.08-.13.11Z"/>
              <path class="cls-8" d="M174.71,163.69l-67.76,33.65c-.27.13-.42.48-.33.78.08.29.35.42.61.31l68.81-29.48c1.3-.56,2.09-2.2,1.76-3.67-.33-1.47-1.65-2.21-2.95-1.65-.04.02-.09.04-.13.06Z"/>
              <path class="cls-8" d="M136.16,158.93l-60.11,18.37c-.28.08-.47.41-.43.72.04.3.28.49.54.43l60.55-13.97c1.34-.31,2.34-1.81,2.23-3.35-.11-1.54-1.29-2.54-2.62-2.23-.05.01-.11.03-.15.04Z"/>
              <path class="cls-8" d="M88,142.97l-31.26,7.46c-.28.07-.48.38-.46.7.02.3.23.49.49.47l31.36-2.99c1.34-.13,2.47-1.5,2.52-3.07.05-1.57-1.01-2.74-2.35-2.61-.1,0-.21.03-.3.05Z"/>
              <path class="cls-8" d="M277.7,122.59l23.11,53.49c.58,1.33,2.03,1.74,3.24.91,1.21-.84,1.73-2.59,1.16-3.92-.02-.06-.05-.12-.08-.17l-26.53-50.97c-.14-.26-.45-.32-.69-.13-.23.19-.32.53-.21.79Z"/>
              <path class="cls-8" d="M233.88,118.92l23.34,52.82c.59,1.33,2.04,1.72,3.25.87,1.21-.84,1.71-2.6,1.13-3.93-.03-.06-.05-.12-.08-.17l-26.74-50.26c-.14-.26-.45-.32-.69-.12-.23.19-.32.53-.2.79Z"/>
              <path class="cls-8" d="M196.84,117.44l19.93,47.87c.56,1.34,2,1.77,3.23.96,1.22-.82,1.76-2.57,1.2-3.91-.03-.06-.06-.13-.09-.19l-23.36-45.38c-.14-.26-.44-.32-.69-.13-.23.18-.32.52-.21.79Z"/>
              <path class="cls-8" d="M153.67,111.63l15.67,54.64c.41,1.43,1.78,2.06,3.06,1.42,1.28-.65,1.98-2.34,1.57-3.77-.02-.06-.04-.13-.06-.19l-19.29-52.62c-.1-.29-.4-.39-.66-.24-.25.15-.37.49-.29.76Z"/>
              <path class="cls-8" d="M113.61,117.6l18,44.19c.55,1.35,1.99,1.79,3.22.99,1.23-.81,1.78-2.56,1.23-3.91-.03-.07-.06-.14-.1-.21l-21.44-41.72c-.14-.26-.44-.32-.69-.13-.23.18-.32.52-.22.78Z"/>
              <path class="cls-8" d="M75.91,114.87l9.9,32.3c.44,1.42,1.82,2.02,3.09,1.34,1.27-.68,1.95-2.38,1.52-3.8-.03-.11-.07-.22-.12-.32l-13.46-30.1c-.12-.27-.43-.35-.68-.18-.23.16-.34.49-.26.75Z"/>
            </g>
            <path class="cls-8" d="M382.76,202.98s-.36-.21-1.05-.6c-.68-.37-1.69-.93-3-1.65-2.63-1.41-6.49-3.4-11.46-5.75-9.95-4.7-24.38-10.85-42.24-16.6-17.85-5.75-39.14-11.1-62.5-14.23-11.68-1.57-23.86-2.58-36.33-2.88-3.12-.02-6.25-.1-9.4-.08-3.15.07-6.31.08-9.48.2-6.3.29-12.62.57-18.95.86-12.39.25-24.85-.48-36.9-2.05-12.06-1.57-23.77-3.99-34.91-7.01-22.3-6.04-42.27-14.5-58.76-23.05-16.51-8.56-29.56-17.18-38.45-23.6-4.44-3.22-7.85-5.89-10.14-7.75-2.29-1.86-3.46-2.91-3.46-2.91-.42-.37-1.05-.24-1.42.29-.37.53-.33,1.25.07,1.63,0,0,1.18,1.11,3.46,3.05,2.28,1.94,5.65,4.71,10.07,8.06,8.82,6.69,21.79,15.69,38.25,24.71,16.44,9.02,36.41,18.05,58.85,24.69,11.21,3.32,23.02,6.05,35.23,7.93,12.22,1.88,24.76,2.92,37.58,2.95,6.3-.15,12.6-.29,18.88-.43,3.11-.05,6.21.01,9.3,0,3.09.05,6.15.2,9.22.29,12.22.56,24.15,1.82,35.57,3.62,22.85,3.58,43.64,9.31,61.02,15.35,17.4,6.04,31.41,12.39,41.01,17.19,4.8,2.4,8.5,4.42,10.99,5.83,1.23.71,2.17,1.26,2.81,1.63.61.37.93.56.93.56l.06.04c2.26,1.38,5.27.2,6.72-2.63,1.45-2.83.78-6.23-1.48-7.61-.02-.01-.06-.04-.08-.05Z"/>
          </g>
        </g>
      </g>
      <g>
        <g>
          <path class="cls-4" d="M91.44,86.97l-16.03,5.91-10.74-2.45c-11.28-2.58-19.48-12.41-19.85-23.98-.54-16.57,6.46-32.95,19.78-44.03l6.05-5.03c10.99-9.14,25.11-13.64,39.36-12.53h0c21.01,1.62,40.95,9.95,56.88,23.75h0c10.16,8.8,22.11,15.28,35.03,18.99l99.65,28.64c9.79,2.81,18.88,7.63,26.7,14.15h0c16.73,13.94,26.4,34.59,26.4,56.36v9.52s-29.63-11.25-29.63-11.25l-182.02-37.07-51.56-20.98Z"/>
          <g class="cls-9">
            <g>
              <polyline class="cls-7" points="39.21 28.63 44.85 67.37 91.44 86.97"/>
              <polygon class="cls-7" points="92.91 88.68 101.24 0 56.97 15.28 58.25 28.63 92.91 88.68 92.91 88.68"/>
              <line class="cls-7" x1="316.66" y1="143.32" x2="344.85" y2="95.37"/>
              <polygon class="cls-7" points="320.85 148.65 357.61 113.37 357.61 159.41 320.85 148.65"/>
              <line class="cls-7" x1="288.04" y1="138.69" x2="312.03" y2="74.45"/>
              <line class="cls-7" x1="256.17" y1="131.99" x2="276.66" y2="66.8"/>
              <line class="cls-7" x1="225.03" y1="124.65" x2="240.75" y2="58.76"/>
              <polyline class="cls-7" points="101.24 0 131.99 4.7 106.44 93.44"/>
              <line class="cls-7" x1="123.62" y1="102.47" x2="163.54" y2="25.71"/>
              <polyline class="cls-7" points="183.3 37.96 143 107.95 165.37 127.34 188.83 118.1 207.61 47.82"/>
            </g>
            <ellipse class="cls-10" cx="67.55" cy="89.59" rx="6.47" ry="8.55" transform="translate(-39.79 122.28) rotate(-69.92)"/>
          </g>
        </g>
        <g>
          <path class="cls-5" d="M124.74,100.34l-17.01,10.65c-1.22,1.26-3.35.25-3.15-1.49l1.95-16.37,18.2,7.22Z"/>
          <path class="cls-5" d="M86.3,101.37l6.61-13.8,13.62,5.54-17.64,10.64c-1.57.92-3.38-.74-2.59-2.38Z"/>
          <path class="cls-5" d="M77.59,92.07l-.96,6.27c-.26,1.73,1.8,2.82,3.08,1.62l13.2-12.39-1.47-.6-13.84,5.1Z"/>
        </g>
        <g>
          <path class="cls-5" d="M143,107.95l12.13,13.23c2.45,2.67,5.71,4.45,9.28,5.07h0c3.49.6,7.07.06,10.22-1.55l14.42-7.37-46.05-9.38Z"/>
          <path class="cls-5" d="M225.03,124.65l-16.77,8.49c-2.22,1.13-4.72,1.59-7.2,1.34h0c-6.35-.64-11.31-5.8-11.7-12.17l-.31-4.98,35.97,7.32Z"/>
          <path class="cls-5" d="M256.17,131l-13.81,7.86c-2.23,1.27-4.82,1.77-7.37,1.42h0c-5.89-.81-10.23-5.93-10.07-11.87l.1-3.75,31.14,6.34Z"/>
          <path class="cls-5" d="M256.17,131l7.16,10.13c3.5,4.95,10.3,6.24,15.36,2.9l9.9-6.53-32.43-6.5Z"/>
        </g>
        <path class="cls-6" d="M325.02,145.02l2.84,7.22c1.43,3.63,4.31,6.49,7.95,7.9h0c3.45,1.33,7.29,1.24,10.68-.26l8.16-3.61-29.63-11.25Z"/>
      </g>
    </g>
  </g>
</svg>