<?xml version="1.0" encoding="UTF-8" standalone="no"?>
<svg
   id="Vrstva_2"
   data-name="Vrstva 2"
   viewBox="0 0 394.97 178.38"
   version="1.1"
   xmlns="http://www.w3.org/2000/svg"
   xmlns:svg="http://www.w3.org/2000/svg">
  <defs
     id="defs2">
    <style
       id="style1">&#10;      .cls-1 {&#10;        fill: url(#Nepojmenovaný_přechod_17);&#10;      }&#10;&#10;      .cls-2 {&#10;        fill: #d95f02;&#10;      }&#10;&#10;      .cls-3 {&#10;        fill: #a34702;&#10;      }&#10;&#10;      .cls-4 {&#10;        fill: none;&#10;        stroke: #e17f35;&#10;      }&#10;&#10;      .cls-5 {&#10;        clip-path: url(#clippath);&#10;      }&#10;&#10;      .cls-6 {&#10;        fill: #361801;&#10;      }&#10;    </style>
    <linearGradient
       id="Nepojmenovaný_přechod_17"
       data-name="Nepojmenovaný přechod 17"
       x1="41.55"
       y1="80.48"
       x2="351.42"
       y2="80.48"
       gradientUnits="userSpaceOnUse">
      <stop
         offset="0"
         stop-color="#d95f02"
         id="stop1" />
      <stop
         offset="1"
         stop-color="#6d3001"
         id="stop2" />
    </linearGradient>
    <clipPath
       id="clippath">
      <path
         class="cls-1"
         d="M88.21,86.97l-16.03,5.91-10.74-2.45c-11.28-2.58-19.48-12.41-19.85-23.98-.54-16.57,6.46-32.95,19.78-44.03l6.05-5.03c10.99-9.14,25.11-13.64,39.36-12.53h0c21.01,1.62,40.95,9.95,56.88,23.75h0c10.16,8.8,22.11,15.28,35.03,18.99l99.65,28.64c9.79,2.81,18.88,7.63,26.7,14.15h0c16.73,13.94,26.4,34.59,26.4,56.36v9.52s-29.63-11.25-29.63-11.25l-182.02-37.07-51.56-20.98Z"
         id="path2" />
    </clipPath>
  </defs>
  <g
     id="Vrstva_1-2"
     data-name="Vrstva 1">
    <g
       id="g17">
      <polygon
         class="cls-6"
         points="0 75.42 139.47 113.54 394.97 163.07 394.97 178.38 139.47 128.48 56.09 109.94 0 95.72 0 75.42"
         id="polygon2" />
      <g
         id="g16">
        <g
           id="g9">
          <path
             class="cls-1"
             d="M88.21,86.97l-16.03,5.91-10.74-2.45c-11.28-2.58-19.48-12.41-19.85-23.98-.54-16.57,6.46-32.95,19.78-44.03l6.05-5.03c10.99-9.14,25.11-13.64,39.36-12.53h0c21.01,1.62,40.95,9.95,56.88,23.75h0c10.16,8.8,22.11,15.28,35.03,18.99l99.65,28.64c9.79,2.81,18.88,7.63,26.7,14.15h0c16.73,13.94,26.4,34.59,26.4,56.36v9.52s-29.63-11.25-29.63-11.25l-182.02-37.07-51.56-20.98Z"
             id="path3" />
          <g
             class="cls-5"
             clip-path="url(#clippath)"
             id="g8">
            <g
               id="g7">
              <polyline
                 class="cls-4"
                 points="35.97 28.63 41.62 67.37 88.21 86.97"
                 id="polyline3" />
              <polygon
                 class="cls-4"
                 points="89.68 88.68 98 0 53.74 15.28 55.02 28.63 89.68 88.68 89.68 88.68"
                 id="polygon3" />
              <line
                 class="cls-4"
                 x1="313.43"
                 y1="143.32"
                 x2="341.62"
                 y2="95.37"
                 id="line3" />
              <polygon
                 class="cls-4"
                 points="317.62 148.65 354.38 113.37 354.38 159.41 317.62 148.65"
                 id="polygon4" />
              <line
                 class="cls-4"
                 x1="284.81"
                 y1="138.69"
                 x2="308.8"
                 y2="74.45"
                 id="line4" />
              <line
                 class="cls-4"
                 x1="252.94"
                 y1="131.99"
                 x2="273.43"
                 y2="66.8"
                 id="line5" />
              <line
                 class="cls-4"
                 x1="221.8"
                 y1="124.65"
                 x2="237.52"
                 y2="58.76"
                 id="line6" />
              <polyline
                 class="cls-4"
                 points="98 0 128.76 4.7 103.21 93.44"
                 id="polyline6" />
              <line
                 class="cls-4"
                 x1="120.39"
                 y1="102.47"
                 x2="160.31"
                 y2="25.71"
                 id="line7" />
              <polyline
                 class="cls-4"
                 points="180.07 37.96 139.77 107.95 162.14 127.34 185.6 118.1 204.38 47.82"
                 id="polyline7" />
            </g>
            <ellipse
               class="cls-6"
               cx="64.32"
               cy="89.59"
               rx="6.47"
               ry="8.55"
               transform="translate(-41.91 119.24) rotate(-69.92)"
               id="ellipse7" />
          </g>
        </g>
        <g
           id="g11">
          <path
             class="cls-2"
             d="M121.51,100.34l-17.01,10.65c-1.22,1.26-3.35.25-3.15-1.49l1.95-16.37,18.2,7.22Z"
             id="path9" />
          <path
             class="cls-2"
             d="M83.07,101.37l6.61-13.8,13.62,5.54-17.64,10.64c-1.57.92-3.38-.74-2.59-2.38Z"
             id="path10" />
          <path
             class="cls-2"
             d="M74.36,92.07l-.96,6.27c-.26,1.73,1.8,2.82,3.08,1.62l13.2-12.39-1.47-.6-13.84,5.1Z"
             id="path11" />
        </g>
        <g
           id="g15">
          <path
             class="cls-2"
             d="M139.77,107.95l12.13,13.23c2.45,2.67,5.71,4.45,9.28,5.07h0c3.49.6,7.07.06,10.22-1.55l14.42-7.37-46.05-9.38Z"
             id="path12" />
          <path
             class="cls-2"
             d="M221.8,124.65l-16.77,8.49c-2.22,1.13-4.72,1.59-7.2,1.34h0c-6.35-.64-11.31-5.8-11.7-12.17l-.31-4.98,35.97,7.32Z"
             id="path13" />
          <path
             class="cls-2"
             d="M252.94,131l-13.81,7.86c-2.23,1.27-4.82,1.77-7.37,1.42h0c-5.89-.81-10.23-5.93-10.07-11.87l.1-3.75,31.14,6.34Z"
             id="path14" />
          <path
             class="cls-2"
             d="M252.94,131l7.16,10.13c3.5,4.95,10.3,6.24,15.36,2.9l9.9-6.53-32.43-6.5Z"
             id="path15" />
        </g>
        <path
           class="cls-3"
           d="M321.79,145.02l2.84,7.22c1.43,3.63,4.31,6.49,7.95,7.9h0c3.45,1.33,7.29,1.24,10.68-.26l8.16-3.61-29.63-11.25Z"
           id="path16" />
      </g>
    </g>
  </g>
</svg>
