<?xml version="1.0" encoding="UTF-8"?>
<svg id="Vrstva_2" data-name="Vrstva 2" xmlns="http://www.w3.org/2000/svg" xmlns:xlink="http://www.w3.org/1999/xlink" viewBox="0 0 293.39 284.79">
  <defs>
    <style>
      .cls-1 {
        fill: url(#Nepojmenovaný_přechod_22);
      }

      .cls-2 {
        fill: #7570b3;
      }

      .cls-3 {
        fill: #918dc2;
      }
    </style>
    <linearGradient id="Nepojmenovaný_přechod_22" data-name="Nepojmenovaný přechod 22" x1="46.96" y1="241.34" x2="402.92" y2="241.34" gradientTransform="translate(36.32 -166.11) rotate(27.09)" gradientUnits="userSpaceOnUse">
      <stop offset="0" stop-color="#7570b3"/>
      <stop offset="1" stop-color="#3b385a"/>
    </linearGradient>
  </defs>
  <g id="Vrstva_1-2" data-name="Vrstva 1">
    <g>
      <path class="cls-1" d="M3.91.37c.82,31.15,60.49,122.01,141.75,158.26,62.29,27.79,104.51,71.75,125.93,98.27-.02,1.23-.05,1.9-.05,1.9-16.11-20.47-129.33,1.65-211.56-55.64C-19.9,147.52,2.57,8.28,3.91.37Z"/>
      <path class="cls-2" d="M145.67,158.63C64.41,122.37,4.74,31.52,3.91.37c.04-.23.06-.37.06-.37,25.64,49.21,143.56,57.9,197.33,92.35,69.87,44.75,70.58,149.25,70.29,164.55-21.42-26.53-63.64-70.48-125.93-98.27Z"/>
      <g>
        <path class="cls-3" d="M235.55,216.75l-59.71,12.75c-.3.07-.54.36-.54.65,0,.28.24.46.52.43l59.65-8.62c1.46-.21,2.71-1.55,2.78-3,.07-1.45-1.05-2.45-2.52-2.24-.06,0-.13.02-.19.03Z"/>
        <path class="cls-3" d="M202.98,192.14l-69.55,14.13c-.3.06-.55.35-.54.65,0,.29.23.47.52.43l69.47-10.01c1.46-.21,2.71-1.55,2.78-3,.07-1.45-1.05-2.45-2.52-2.24-.05,0-.11.02-.16.03Z"/>
        <path class="cls-3" d="M163.03,165.63l-66.66,18.77c-.3.09-.53.39-.5.68.03.28.28.44.56.38l66.9-14.71c1.46-.32,2.62-1.74,2.58-3.16-.04-1.43-1.26-2.32-2.72-2-.05.01-.11.03-.17.04Z"/>
        <path class="cls-3" d="M125.36,146.34l-75.65-.89c-.3,0-.59.24-.65.54-.06.29.12.53.4.55l74.68,5.08c1.41.1,2.87-1.01,3.24-2.47.38-1.46-.46-2.72-1.88-2.81-.04,0-.1,0-.14,0Z"/>
        <path class="cls-3" d="M93.21,124.55l-61.88-11.02c-.28-.05-.6.15-.71.45-.1.29.03.56.29.63l60.27,15.13c1.33.33,2.9-.55,3.51-1.97.6-1.42.01-2.85-1.32-3.18-.05-.01-.11-.02-.16-.03Z"/>
        <path class="cls-3" d="M57.6,88.4l-31.23-7.59c-.28-.07-.6.12-.73.41-.11.27-.02.54.22.64l29.28,11.62c1.26.5,2.89-.21,3.64-1.59.76-1.38.35-2.9-.91-3.39-.09-.04-.2-.07-.29-.09Z"/>
        <path class="cls-3" d="M235.77,156.65l-3.79,58.15c-.09,1.45,1.01,2.47,2.47,2.28,1.46-.19,2.72-1.52,2.82-2.97,0-.06,0-.13,0-.19l-.41-57.45c0-.3-.25-.49-.55-.43-.29.06-.53.33-.54.61Z"/>
        <path class="cls-3" d="M198.44,133.42l-3.27,57.65c-.08,1.45,1.04,2.46,2.5,2.25,1.46-.2,2.71-1.54,2.79-2.98,0-.06,0-.13,0-.19l-.92-56.93c0-.3-.25-.49-.56-.42-.29.06-.52.33-.54.61Z"/>
        <path class="cls-3" d="M166.13,115.24l-4.06,51.7c-.11,1.45.98,2.49,2.44,2.32,1.46-.17,2.74-1.49,2.85-2.94,0-.07,0-.14,0-.21l-.13-51.04c0-.3-.25-.49-.55-.43-.29.06-.52.32-.55.6Z"/>
        <path class="cls-3" d="M130.34,90.41l-10.93,55.78c-.29,1.46.65,2.65,2.08,2.65,1.44,0,2.83-1.18,3.12-2.64.01-.06.02-.14.03-.2l6.79-55.63c.04-.3-.18-.53-.48-.51-.29.02-.55.26-.61.55Z"/>
        <path class="cls-3" d="M91.96,77.48l-4.1,47.54c-.12,1.45.95,2.5,2.41,2.35,1.46-.16,2.75-1.47,2.87-2.92,0-.08,0-.16.01-.23l-.09-46.9c0-.3-.25-.49-.55-.43-.29.06-.52.32-.55.6Z"/>
        <path class="cls-3" d="M59.64,57.88l-5.89,33.27c-.26,1.46.7,2.63,2.14,2.61,1.44-.03,2.82-1.23,3.08-2.7.02-.11.03-.23.04-.33l1.72-32.93c.02-.3-.22-.51-.52-.47-.28.04-.52.28-.57.55Z"/>
      </g>
      <path class="cls-3" d="M292.7,276.05s-.22-.35-.66-1.01c-.43-.64-1.08-1.59-1.92-2.84-1.7-2.45-4.23-5.98-7.59-10.34-6.72-8.72-16.77-20.76-30.05-34.01-13.27-13.25-29.79-27.7-49.17-41.13-9.68-6.71-20.07-13.16-31.03-19.1-2.77-1.44-5.52-2.94-8.33-4.36-2.84-1.37-5.66-2.8-8.53-4.14-5.74-2.61-11.5-5.24-17.26-7.86-11.14-5.42-21.91-11.74-31.91-18.63-10.02-6.89-19.35-14.37-27.89-22.14-17.1-15.53-31.03-32.15-41.81-47.28-10.8-15.13-18.5-28.75-23.48-38.52-2.49-4.89-4.31-8.81-5.5-11.51-1.19-2.7-1.75-4.16-1.75-4.16-.2-.52-.83-.7-1.4-.39-.57.3-.87.97-.68,1.49,0,0,.55,1.53,1.69,4.29,1.14,2.76,2.89,6.77,5.29,11.76,4.8,9.97,12.25,23.89,22.8,39.42,10.53,15.52,24.2,32.65,41.15,48.78,8.47,8.06,17.74,15.87,27.76,23.1,10.02,7.24,20.72,13.87,32.11,19.74,5.68,2.74,11.35,5.48,17.01,8.21,2.79,1.38,5.52,2.84,8.28,4.24,2.73,1.45,5.39,2.98,8.07,4.45,10.62,6.06,20.67,12.62,30.02,19.42,18.71,13.6,34.61,28.16,47.34,41.45,12.74,13.3,22.32,25.33,28.68,33.98,3.18,4.33,5.56,7.81,7.13,10.2.77,1.2,1.36,2.11,1.76,2.73.37.61.57.92.57.92l.04.06c1.39,2.26,4.6,2.58,7.18.72,2.58-1.86,3.54-5.19,2.14-7.45-.01-.02-.04-.06-.05-.08Z"/>
    </g>
  </g>
</svg>