<?xml version="1.0" encoding="UTF-8"?>
<svg id="Vrstva_2" data-name="Vrstva 2" xmlns="http://www.w3.org/2000/svg" xmlns:xlink="http://www.w3.org/1999/xlink" viewBox="0 0 394.97 409.37">
  <defs>
    <style>
      .cls-1 {
        stroke: #6ac0a6;
      }

      .cls-1, .cls-2, .cls-3, .cls-4, .cls-5, .cls-6, .cls-7, .cls-8, .cls-9, .cls-10, .cls-11, .cls-12, .cls-13, .cls-14, .cls-15, .cls-16, .cls-17, .cls-18, .cls-19, .cls-20, .cls-21, .cls-22, .cls-23, .cls-24, .cls-25, .cls-26, .cls-27, .cls-28, .cls-29, .cls-30 {
        fill: none;
      }

      .cls-1, .cls-2, .cls-3, .cls-4, .cls-5, .cls-6, .cls-7, .cls-8, .cls-9, .cls-10, .cls-11, .cls-12, .cls-13, .cls-14, .cls-15, .cls-16, .cls-17, .cls-18, .cls-19, .cls-20, .cls-21, .cls-22, .cls-23, .cls-25, .cls-26, .cls-27, .cls-28, .cls-29, .cls-30 {
        stroke-miterlimit: 10;
      }

      .cls-31 {
        mask: url(#mask);
      }

      .cls-2 {
        stroke: #7cc7b1;
      }

      .cls-3 {
        stroke: #80c9b3;
      }

      .cls-32 {
        fill: url(#Nepojmenovaný_přechod_3-2);
      }

      .cls-4 {
        stroke: #99d4c2;
      }

      .cls-5 {
        stroke: #77c5ae;
      }

      .cls-6 {
        stroke: #49b192;
      }

      .cls-33 {
        fill: url(#Nepojmenovaný_přechod_35-3);
      }

      .cls-34 {
        fill: url(#Nepojmenovaný_přechod_35-2);
      }

      .cls-35 {
        fill: url(#Nepojmenovaný_přechod_34-3);
      }

      .cls-36 {
        fill: url(#Nepojmenovaný_přechod_34-2);
      }

      .cls-37 {
        fill: url(#Nepojmenovaný_přechod_34-4);
      }

      .cls-38 {
        fill: url(#Nepojmenovaný_přechod_34-5);
      }

      .cls-39 {
        fill: url(#Nepojmenovaný_přechod_34-6);
      }

      .cls-40 {
        fill: url(#Nepojmenovaný_přechod_39);
      }

      .cls-41 {
        fill: url(#Nepojmenovaný_přechod_34);
      }

      .cls-42 {
        fill: url(#Nepojmenovaný_přechod_35);
      }

      .cls-43 {
        fill: url(#Nepojmenovaný_přechod_43);
      }

      .cls-44 {
        fill: url(#Nepojmenovaný_přechod_41);
      }

      .cls-45 {
        fill: url(#Nepojmenovaný_přechod_17);
      }

      .cls-7 {
        stroke: #9ed6c5;
      }

      .cls-46 {
        fill: #122c25;
      }

      .cls-8 {
        stroke: #a3d8c8;
      }

      .cls-9 {
        stroke: #94d2bf;
      }

      .cls-47 {
        clip-path: url(#clippath-1);
      }

      .cls-10 {
        stroke: #60bba0;
      }

      .cls-11 {
        stroke: #66bea4;
      }

      .cls-12 {
        stroke: #53b598;
      }

      .cls-48 {
        fill: #fff;
      }

      .cls-13 {
        stroke: #a7daca;
      }

      .cls-14 {
        stroke: #63bda2;
      }

      .cls-15 {
        stroke: #50b496;
      }

      .cls-49 {
        fill: #d95f02;
      }

      .cls-16 {
        stroke: #6dc1a8;
      }

      .cls-50 {
        fill: url(#Nepojmenovaný_přechod_3);
      }

      .cls-51 {
        fill: #0e513e;
      }

      .cls-17 {
        stroke: #56b79a;
      }

      .cls-18 {
        stroke: #59b89c;
      }

      .cls-19 {
        stroke: #8acdb9;
      }

      .cls-52 {
        fill: #a34702;
      }

      .cls-20 {
        stroke: #49b192;
      }

      .cls-21 {
        stroke: #5dba9e;
      }

      .cls-22 {
        stroke: #8fcfbc;
      }

      .cls-23 {
        stroke: #1b9e77;
      }

      .cls-24 {
        stroke: #e17f35;
      }

      .cls-25 {
        stroke: #85cbb6;
      }

      .cls-26 {
        stroke: #b6e0d3;
      }

      .cls-27 {
        stroke: #72c3ab;
      }

      .cls-28 {
        stroke: #b1ded0;
      }

      .cls-53 {
        fill: #49b192;
      }

      .cls-29 {
        stroke: #4cb294;
      }

      .cls-54 {
        clip-path: url(#clippath);
      }

      .cls-55 {
        fill: #361801;
      }

      .cls-30 {
        stroke: #acdccd;
      }
    </style>
    <linearGradient id="Nepojmenovaný_přechod_17" data-name="Nepojmenovaný přechod 17" x1="41.55" y1="311.47" x2="351.42" y2="311.47" gradientUnits="userSpaceOnUse">
      <stop offset="0" stop-color="#d95f02"/>
      <stop offset="1" stop-color="#6d3001"/>
    </linearGradient>
    <clipPath id="clippath">
      <path class="cls-45" d="M88.21,317.96l-16.03,5.91-10.74-2.45c-11.28-2.58-19.48-12.41-19.85-23.98-.54-16.57,6.46-32.95,19.78-44.03l6.05-5.03c10.99-9.14,25.11-13.64,39.36-12.53h0c21.01,1.62,40.95,9.95,56.88,23.75h0c10.16,8.8,22.11,15.28,35.03,18.99l99.65,28.64c9.79,2.81,18.88,7.63,26.7,14.15h0c16.73,13.94,26.4,34.59,26.4,56.36v9.52s-29.63-11.25-29.63-11.25l-182.02-37.07-51.56-20.98Z"/>
    </clipPath>
    <linearGradient id="Nepojmenovaný_přechod_3" data-name="Nepojmenovaný přechod 3" x1="236.91" y1="246.73" x2="395.45" y2="246.73" gradientTransform="translate(218.01 -171.5) rotate(45.1)" gradientUnits="userSpaceOnUse">
      <stop offset="0" stop-color="#0e4f3c"/>
      <stop offset="1" stop-color="#1b9e77"/>
    </linearGradient>
    <clipPath id="clippath-1">
      <path class="cls-50" d="M195.8,188.62c-1.16-3.5,2.1-5.45,2.1-5.45,45.47-21.41,119.75-10.01,109.91,114.12,0,0-32.22-.43-43.18-27.04-16.79-40.74,19.28-37.63-10.27-69.6-22.71-24.58-58.57-12.03-58.57-12.03Z"/>
    </clipPath>
    <linearGradient id="Nepojmenovaný_přechod_43" data-name="Nepojmenovaný přechod 43" x1="148.57" y1="168.91" x2="290.75" y2="26.73" gradientTransform="translate(49.18 -40.95) rotate(12.12)" gradientUnits="userSpaceOnUse">
      <stop offset="0" stop-color="#49b192"/>
      <stop offset=".5" stop-color="#92d0be"/>
      <stop offset="1" stop-color="#b6e0d3"/>
    </linearGradient>
    <linearGradient id="Nepojmenovaný_přechod_3-2" data-name="Nepojmenovaný přechod 3" x1="79.76" y1="204.02" x2="79.76" y2="33.69" gradientTransform="translate(49.18 -40.95) rotate(12.12)" xlink:href="#Nepojmenovaný_přechod_3"/>
    <linearGradient id="Nepojmenovaný_přechod_41" data-name="Nepojmenovaný přechod 41" x1="173.03" y1="187.17" x2="281.04" y2="79.16" gradientTransform="translate(49.18 -40.95) rotate(12.12)" gradientUnits="userSpaceOnUse">
      <stop offset="0" stop-color="#76c5ad"/>
      <stop offset=".5" stop-color="#bee3d8"/>
      <stop offset="1" stop-color="#dbefe9"/>
    </linearGradient>
    <linearGradient id="Nepojmenovaný_přechod_39" data-name="Nepojmenovaný přechod 39" x1="93.14" y1="198.35" x2="122.31" y2="198.35" gradientTransform="translate(49.18 -40.95) rotate(12.12)" gradientUnits="userSpaceOnUse">
      <stop offset="0" stop-color="#1b9e77"/>
      <stop offset="1" stop-color="#0e4f3c"/>
    </linearGradient>
    <linearGradient id="Nepojmenovaný_přechod_34" data-name="Nepojmenovaný přechod 34" x1="235.38" y1="232.08" x2="294.05" y2="232.08" gradientTransform="translate(111.89 -77.01) rotate(22.78)" gradientUnits="userSpaceOnUse">
      <stop offset="0" stop-color="#49b192"/>
      <stop offset="1" stop-color="#147759"/>
    </linearGradient>
    <linearGradient id="Nepojmenovaný_přechod_34-2" data-name="Nepojmenovaný přechod 34" x1="216.85" y1="232.5" x2="240.12" y2="232.5" xlink:href="#Nepojmenovaný_přechod_34"/>
    <linearGradient id="Nepojmenovaný_přechod_34-3" data-name="Nepojmenovaný přechod 34" x1="292.29" y1="248.81" x2="343.79" y2="248.81" xlink:href="#Nepojmenovaný_přechod_34"/>
    <mask id="mask" x="62.8" y="0" width="78.73" height="179.1" maskUnits="userSpaceOnUse">
      <path class="cls-48" d="M140.5,15.84c-30.07,9.2-51.02,38.43-54.96,69-3.25,23.22,1.58,46.94,9.93,68.63,2.06,5.49,4.41,10.88,6.96,16.17,0,0,2.55,5.29,2.55,5.29.75,1.42.17,3.19-1.28,3.88-1.42.69-3.14.07-3.8-1.36-1.51-3.31-3.62-7.64-4.98-10.94-14.16-32.82-21.51-71.64-6.97-105.59,9.54-22.18,28.29-41.05,51.79-47.81,1.78-.42,2.58,2.15.76,2.73h0Z"/>
    </mask>
    <linearGradient id="Nepojmenovaný_přechod_35" data-name="Nepojmenovaný přechod 35" x1="115.17" y1="264.69" x2="115.17" y2="236.89" gradientTransform="translate(79.52 -45.1) rotate(17.08)" gradientUnits="userSpaceOnUse">
      <stop offset="0" stop-color="#147759"/>
      <stop offset="1" stop-color="#49b192"/>
    </linearGradient>
    <linearGradient id="Nepojmenovaný_přechod_34-4" data-name="Nepojmenovaný přechod 34" x1="114.49" y1="329.18" x2="157.78" y2="329.18" gradientTransform="translate(346.68 2.49) rotate(66.16)" xlink:href="#Nepojmenovaný_přechod_34"/>
    <linearGradient id="Nepojmenovaný_přechod_35-2" data-name="Nepojmenovaný přechod 35" x1="138.18" y1="236.75" x2="138.18" y2="221.57" gradientTransform="translate(49.18 -40.95) rotate(12.12)" xlink:href="#Nepojmenovaný_přechod_35"/>
    <linearGradient id="Nepojmenovaný_přechod_35-3" data-name="Nepojmenovaný přechod 35" x1="198.36" y1="277.34" x2="236.91" y2="277.34" gradientTransform="translate(577.7 263.96) rotate(-132.16) scale(1 -1)" xlink:href="#Nepojmenovaný_přechod_35"/>
    <linearGradient id="Nepojmenovaný_přechod_34-5" data-name="Nepojmenovaný přechod 34" x1="209.32" y1="252.01" x2="262.14" y2="252.01" gradientTransform="translate(186.76 -67.1) rotate(32.6) scale(.82 1)" xlink:href="#Nepojmenovaný_přechod_34"/>
    <linearGradient id="Nepojmenovaný_přechod_34-6" data-name="Nepojmenovaný přechod 34" x1="186.29" y1="231.08" x2="205.38" y2="231.08" gradientTransform="translate(49.18 -40.95) rotate(12.12)" xlink:href="#Nepojmenovaný_přechod_34"/>
  </defs>
  <g id="Vrstva_1-2" data-name="Vrstva 1">
    <g>
      <path class="cls-51" d="M295.33,287.55c2.21,12.95,7.47,25.58,14.15,36.88,6.15,10.09,13.88,19.1,22.88,26.77.66.57-.2,1.67-.92,1.08-9.99-7.98-18.74-17.59-25.45-28.5-6.8-10.98-11.98-22.88-14.62-35.63-.45-2.7,3.57-3.35,3.96-.59h0Z"/>
      <g>
        <polygon class="cls-55" points="0 306.41 139.47 344.53 394.97 394.06 394.97 409.37 139.47 359.47 56.09 340.93 0 326.71 0 306.41"/>
        <g>
          <g>
            <path class="cls-45" d="M88.21,317.96l-16.03,5.91-10.74-2.45c-11.28-2.58-19.48-12.41-19.85-23.98-.54-16.57,6.46-32.95,19.78-44.03l6.05-5.03c10.99-9.14,25.11-13.64,39.36-12.53h0c21.01,1.62,40.95,9.95,56.88,23.75h0c10.16,8.8,22.11,15.28,35.03,18.99l99.65,28.64c9.79,2.81,18.88,7.63,26.7,14.15h0c16.73,13.94,26.4,34.59,26.4,56.36v9.52s-29.63-11.25-29.63-11.25l-182.02-37.07-51.56-20.98Z"/>
            <g class="cls-54">
              <g>
                <polyline class="cls-24" points="35.97 259.62 41.62 298.36 88.21 317.96"/>
                <polygon class="cls-24" points="89.68 319.67 98 230.99 53.74 246.28 55.02 259.62 89.68 319.67 89.68 319.67"/>
                <line class="cls-24" x1="313.43" y1="374.31" x2="341.62" y2="326.36"/>
                <polygon class="cls-24" points="317.62 379.64 354.38 344.36 354.38 390.4 317.62 379.64"/>
                <line class="cls-24" x1="284.81" y1="369.68" x2="308.8" y2="305.44"/>
                <line class="cls-24" x1="252.94" y1="362.98" x2="273.43" y2="297.79"/>
                <line class="cls-24" x1="221.8" y1="355.65" x2="237.52" y2="289.75"/>
                <polyline class="cls-24" points="98 230.99 128.76 235.69 103.21 324.43"/>
                <line class="cls-24" x1="120.39" y1="333.46" x2="160.31" y2="256.7"/>
                <polyline class="cls-24" points="180.07 268.95 139.77 338.94 162.14 358.33 185.6 349.09 204.38 278.81"/>
              </g>
              <ellipse class="cls-55" cx="64.32" cy="320.58" rx="6.47" ry="8.55" transform="translate(-258.86 270.93) rotate(-69.92)"/>
            </g>
          </g>
          <g>
            <path class="cls-49" d="M121.51,331.33l-17.01,10.65c-1.22,1.26-3.35.25-3.15-1.49l1.95-16.37,18.2,7.22Z"/>
            <path class="cls-49" d="M83.07,332.36l6.61-13.8,13.62,5.54-17.64,10.64c-1.57.92-3.38-.74-2.59-2.38Z"/>
            <path class="cls-49" d="M74.36,323.06l-.96,6.27c-.26,1.73,1.8,2.82,3.08,1.62l13.2-12.39-1.47-.6-13.84,5.1Z"/>
          </g>
          <g>
            <path class="cls-49" d="M139.77,338.94l12.13,13.23c2.45,2.67,5.71,4.45,9.28,5.07h0c3.49.6,7.07.06,10.22-1.55l14.42-7.37-46.05-9.38Z"/>
            <path class="cls-49" d="M221.8,355.65l-16.77,8.49c-2.22,1.13-4.72,1.59-7.2,1.34h0c-6.35-.64-11.31-5.8-11.7-12.17l-.31-4.98,35.97,7.32Z"/>
            <path class="cls-49" d="M252.94,361.99l-13.81,7.86c-2.23,1.27-4.82,1.77-7.37,1.42h0c-5.89-.81-10.23-5.93-10.07-11.87l.1-3.75,31.14,6.34Z"/>
            <path class="cls-49" d="M252.94,361.99l7.16,10.13c3.5,4.95,10.3,6.24,15.36,2.9l9.9-6.53-32.43-6.5Z"/>
          </g>
          <path class="cls-52" d="M321.79,376.01l2.84,7.22c1.43,3.63,4.31,6.49,7.95,7.9h0c3.45,1.33,7.29,1.24,10.68-.26l8.16-3.61-29.63-11.25Z"/>
        </g>
      </g>
      <g>
        <path class="cls-51" d="M126.42,178.41l3.53-16.44c2.13-9.91,12.19-15.96,21.94-13.19l27.55,7.82c17.99,5.11,31.31,20.3,34.01,38.8h0s-6.18,1.95-6.18,1.95c-24.1,7.6-50.14,6.16-73.26-4.06h0c-5.74-2.54-8.91-8.76-7.59-14.89Z"/>
        <g>
          <path class="cls-50" d="M195.8,188.62c-1.16-3.5,2.1-5.45,2.1-5.45,45.47-21.41,119.75-10.01,109.91,114.12,0,0-32.22-.43-43.18-27.04-16.79-40.74,19.28-37.63-10.27-69.6-22.71-24.58-58.57-12.03-58.57-12.03Z"/>
          <g class="cls-47">
            <g>
              <line class="cls-23" x1="261.7" y1="176.3" x2="232.08" y2="203.48"/>
              <line class="cls-20" x1="294.63" y1="202.52" x2="246.34" y2="228.07"/>
              <line class="cls-6" x1="306.42" y1="233.85" x2="254.25" y2="253.68"/>
              <line class="cls-6" x1="309.05" y1="255.94" x2="254.93" y2="275.69"/>
              <line class="cls-6" x1="315.24" y1="266.77" x2="252.65" y2="289.4"/>
              <line class="cls-6" x1="317.81" y1="278.22" x2="257.9" y2="298.4"/>
              <line class="cls-6" x1="318.27" y1="287.52" x2="266.47" y2="303.27"/>
            </g>
          </g>
        </g>
        <path class="cls-43" d="M160.5,157.74s59.56-91.85,121.58-136.03c18.06-12.87,42.36,3.52,37.23,25.1-12.96,54.51-50.49,134.44-158.82,110.93Z"/>
        <path class="cls-32" d="M140.5,15.84c-30.07,9.2-51.02,38.43-54.96,69-3.25,23.22,1.58,46.94,9.93,68.63,2.06,5.49,4.41,10.88,6.96,16.17,0,0,2.55,5.29,2.55,5.29.75,1.42.17,3.19-1.28,3.88-1.42.69-3.14.07-3.8-1.36-1.51-3.31-3.62-7.64-4.98-10.94-14.16-32.82-21.51-71.64-6.97-105.59,9.54-22.18,28.29-41.05,51.79-47.81,1.78-.42,2.58,2.15.76,2.73h0Z"/>
        <path class="cls-44" d="M170.76,165.54s70.67-59.75,116.07-81.33c11.16-5.3,22.75,6.9,16.3,17.18-22.32,35.56-70.67,94.49-132.37,64.15Z"/>
        <path class="cls-40" d="M118.84,155.78c8.73,14.55,13.29,30.84-3.67,42.17-2.26,1.51-5.28,1.22-7.26-.64-4.6-4.31-11.76-13.38-8.98-26.31,1.5-6.99,4.14-12.13,6.76-15.78,3.29-4.58,10.25-4.28,13.15.56Z"/>
        <path class="cls-46" d="M113.06,161.73l-2.17,23.61c-.29,3.13-4.06,4.59-6.35,2.44-3.89-3.64-7.74-10.25-4.43-21.19,1.62-5.36,5.02-7.76,7.99-8.81,2.57-.91,5.21,1.23,4.96,3.95Z"/>
        <g>
          <path class="cls-41" d="M237.25,232.37l59.06,10.89s-17.43,17-55.48-7.17l-3.58-3.72Z"/>
          <path class="cls-36" d="M225.13,213.36l15.7,22.72s-5.94,2-12.38-3.57c-6.44-5.56-3.32-19.16-3.32-19.16Z"/>
          <path class="cls-53" d="M324.15,304.01l-5.44,2.8s-22.32,69.48-3.53,81.7c0,0-12.33-10.97,1.27-60.73"/>
          <path class="cls-51" d="M212.1,192.77l17.02,26.37c1.23,1.78-15.42.77-20.34-9.41s3.32-16.96,3.32-16.96Z"/>
          <path class="cls-35" d="M296.31,243.26l-2.72,1.94,25.23,61.62s9.21,1.42,5.41-9.98-27.92-53.58-27.92-53.58Z"/>
        </g>
        <g class="cls-31">
          <g>
            <line class="cls-6" x1="83.97" y1="159.47" x2="99.04" y2="155.28"/>
            <line class="cls-29" x1="82.05" y1="152.5" x2="98.19" y2="149.21"/>
            <line class="cls-15" x1="80.14" y1="145.53" x2="97.34" y2="143.15"/>
            <line class="cls-12" x1="78.22" y1="138.56" x2="96.49" y2="137.08"/>
            <line class="cls-17" x1="76.31" y1="131.59" x2="95.64" y2="131.01"/>
            <line class="cls-18" x1="74.39" y1="124.62" x2="94.79" y2="124.95"/>
            <line class="cls-21" x1="72.48" y1="117.65" x2="93.94" y2="118.88"/>
            <line class="cls-10" x1="70.56" y1="110.68" x2="93.09" y2="112.82"/>
            <line class="cls-14" x1="68.65" y1="103.71" x2="92.24" y2="106.75"/>
            <line class="cls-11" x1="66.74" y1="96.74" x2="91.38" y2="100.68"/>
            <line class="cls-1" x1="64.82" y1="89.77" x2="90.53" y2="94.62"/>
            <line class="cls-16" x1="62.91" y1="82.8" x2="89.68" y2="88.55"/>
            <line class="cls-27" x1="67.47" y1="77.29" x2="93.06" y2="84.27"/>
            <line class="cls-5" x1="72.03" y1="71.79" x2="96.43" y2="79.99"/>
            <line class="cls-2" x1="76.59" y1="66.28" x2="99.81" y2="75.71"/>
            <line class="cls-3" x1="81.16" y1="60.77" x2="103.18" y2="71.43"/>
            <line class="cls-25" x1="85.72" y1="55.26" x2="106.56" y2="67.15"/>
            <line class="cls-19" x1="90.28" y1="49.75" x2="109.93" y2="62.86"/>
            <line class="cls-22" x1="94.84" y1="44.24" x2="113.31" y2="58.58"/>
            <line class="cls-9" x1="99.4" y1="38.73" x2="116.68" y2="54.3"/>
            <line class="cls-4" x1="103.97" y1="33.23" x2="120.06" y2="50.02"/>
            <line class="cls-7" x1="108.53" y1="27.72" x2="123.43" y2="45.74"/>
            <line class="cls-8" x1="113.09" y1="22.21" x2="126.8" y2="41.46"/>
            <line class="cls-13" x1="117.65" y1="16.7" x2="130.18" y2="37.18"/>
            <line class="cls-30" x1="122.22" y1="11.19" x2="133.55" y2="32.9"/>
            <line class="cls-28" x1="126.78" y1="5.68" x2="136.93" y2="28.62"/>
            <line class="cls-26" x1="131.34" y1=".17" x2="140.3" y2="24.33"/>
          </g>
        </g>
        <g>
          <g>
            <path class="cls-53" d="M104.1,278.77s-.9,69.49-21.82,63.38c0,0,12.73.7,16.16-29.42,3.06-26.92,2.8-35.99,2.8-35.99l2.86,2.03Z"/>
            <path class="cls-42" d="M133.62,219.36l-35.28,18.23s3.29-19.22,32.52-19.1l2.76.87Z"/>
            <path class="cls-37" d="M98.34,237.59l2.8,45.87s5.21-1.22,3.73-11.5c-1.48-10.28-4.81-35.31-4.81-35.31l-1.72.95Z"/>
            <path class="cls-34" d="M136.21,210.21l-6.1,7.94s9.11,6.34,12.16-12.49l-6.06,4.55Z"/>
          </g>
          <path class="cls-51" d="M136.7,190.97l-.49,19.24s9.43,1.01,11.35-14.28l-10.87-4.96Z"/>
        </g>
        <g>
          <g>
            <path class="cls-53" d="M227.65,311.46s-4.75,42.87,19.73,61.91c0,0-16.58-15.66-17.31-43.68-.49-18.68.41-20.79.41-20.79l-2.83,2.56Z"/>
            <path class="cls-33" d="M224.17,264.49l2.05,48.62s5.76-.56,5.77-7.46c.01-6.9-5.97-40.95-5.97-40.95l-1.85-.2Z"/>
          </g>
          <path class="cls-38" d="M199.83,234.41l26.81,33.68s4.13-4.34-1.52-12.18c-5.65-7.84-25.21-26.04-25.21-26.04l-.08,4.54Z"/>
          <path class="cls-39" d="M189.7,218.55s13.95,4.36,10.29,16.24l-15.74-17.41,5.45,1.17Z"/>
          <path class="cls-51" d="M176.15,200.62c7.73-.61,16.4,10.53,13.55,17.93,0,0-20.55-1.02-20.96-16.83l7.41-1.1Z"/>
        </g>
      </g>
    </g>
  </g>
</svg>